#!OML:ASF F:\VICON\USERDATA\INSTALL\rory3\rory3.ASF
:FULLY-SPECIFIED
:DEGREES
18
root 0.3616090000000005 17.8699 -20.576999999999963 -2.57157 3.3328900000000097 -0.9144389999999976
lfemur 11.306099999999967 -3.4306000000000005 -22.707800000000006
ltibia 32.2907
lfoot -6.98736 -8.770309999999988
ltoes -20.371400000000015
rfemur -25.162699999999973 1.42978 24.443799999999996
rtibia 26.928199999999997
rfoot -4.0243400000000005 -6.86872
rtoes 0.37212899999999793
lowerback nan -1.5697400000000021 -2.8293600000000056
upperback -0.22856999999999977 -2.2875499999999986 2.57944
thorax -6.12859 -0.9949909999999972 4.682099999999997
lowerneck -15.024499999999996 -2.5323699999999976 -2.13706
upperneck 22.2184 -2.990779999999998 -0.07704819999999679
head 9.53106 -1.5841499999999997 -0.04494199999999973
lclavicle 1.0312000000000066e-15 1.749309999999998e-14
lhumerus -24.407500000000006 1.4782200000000012 83.6559
lradius 28.397399999999998
lwrist 6.045959999999999
lhand -33.172900000000006 14.804400000000003
lfingers nan
lthumb -6.381129999999992 44.688199999999995
rclavicle 1.0312000000000066e-15 1.749309999999998e-14
rhumerus -41.16769999999998 -33.0882 -66.0153
rradius 17.95760000000002
rwrist 15.411599999999991
rhand -18.1349 nan
rfingers nan
rthumb 8.14012 -8.074
19
root 0.3256700000000005 17.9489 -19.96580000000005 -2.93812 2.7384600000000034 -1.0951999999999997
lfemur 8.930350000000027 -2.0134400000000006 -21.6371
ltibia 38.5048
lfoot 2.050310000000014 -12.79949999999999
ltoes -18.99279999999999
rfemur -23.434100000000008 1.4074800000000012 25.124000000000002
rtibia 28.574799999999975
rfoot -5.354159999999997 -7.208759999999997
rtoes 6.398809999999995
lowerback nan -1.1643799999999982 -2.339010000000007
upperback 0.19621399999999994 -1.700219999999996 2.2386599999999994
thorax -5.478009999999999 -0.747145 3.92133
lowerneck -15.8929 -2.8221 -1.6490399999999994
upperneck 22.5007 -3.5077800000000012 -0.06863979999999703
head 9.78886 -1.77785 -0.20512900000000098
lclavicle 9.790140000000008e-15 -1.192709999999999e-14
lhumerus -25.088600000000007 1.2777899999999986 83.8047
lradius 28.68
lwrist 6.489220000000001
lhand -32.29879999999999 20.0955
lfingers nan
lthumb -5.537260000000002 50.0031
rclavicle 9.790140000000008e-15 -1.192709999999999e-14
rhumerus -41.372499999999995 -34.59699999999998 -65.94180000000001
rradius 18.056899999999974
rwrist 16.14390000000001
rhand -17.0292 nan
rfingers nan
rthumb 9.207190000000002 -7.12269
20
root 0.28447399999999967 18.0204 -19.386000000000024 -3.5479600000000007 2.765640000000003 -2.31696
lfemur 5.61053000000002 -1.276369999999999 -19.3021
ltibia 45.27240000000002
lfoot 11.50529999999998 -16.702800000000018
ltoes -18.30890000000001
rfemur -20.95330000000001 1.1917999999999993 26.9315
rtibia 28.62900000000002
rfoot -5.669820000000003 -7.215910000000001
rtoes 3.821410000000002
lowerback nan -1.3953900000000008 -1.6491599999999973
upperback 0.1785439999999997 -1.8858600000000025 2.9415900000000015
thorax -5.654870000000001 -0.8439029999999991 4.313020000000004
lowerneck -15.4074 -2.6866100000000004 -2.3028699999999995
upperneck 22.2774 -3.139150000000001 -0.13430400000000087
head 9.62779 -1.6723699999999995 -0.06206879999999951
lclavicle 1.7368799999999973e-14 -1.7095499999999978e-14
lhumerus -26.881900000000012 2.698740000000001 84.3401
lradius 29.3434
lwrist 6.687669999999999
lhand -32.2387 21.073199999999996
lfingers nan
lthumb -5.479170000000003 50.9824
rclavicle 1.7368799999999973e-14 -1.7095499999999978e-14
rhumerus -40.17210000000001 -31.062699999999978 -67.9886
rradius 18.857300000000002
rwrist 13.450800000000005
rhand -17.4316 nan
rfingers nan
rthumb 8.81887 -8.344780000000004
21
root 0.26101128103116045 17.932638943987318 -0.7332181211345841 -2.2952209891807347 -2.435310280276127 -6.864899314948609
lfemur -3.9644728714529105 -0.7663336699774883 -12.001332398335173
ltibia 55.25514779604707
lfoot 4.109001503813737 -7.056685522170614
ltoes -10.46943607939566
rfemur -9.909915998139144 2.735942530607622 31.479609199251644
rtibia 21.389558618706378
rfoot -6.811901967003695 -11.24722551484181
rtoes 8.249235790361658
lowerback nan 0.1299011552783806 2.9154038819105237
upperback 0.09722518129860715 0.9436116272569621 2.5651069995316607
thorax -6.427873503033059 0.3898624955180148 1.4147622839339764
lowerneck -16.242786001933233 -2.971735994987086 -1.5143786052947563
upperneck 22.65384720792893 -3.8519819865082923 0.10766314768831475
head 10.011876120713433 -1.9432692491249715 -0.1705964288947124
lclavicle -2.577345226017133e-15 -2.7686638757663914e-15
lhumerus -29.74575765552314 -0.2883672686539138 84.12063986220552
lradius 25.63196066973859
lwrist 9.632992573930022
lhand -29.870779125063002 18.851371866637372
lfingers nan
lthumb -3.6121398748623563 47.53728960186825
rclavicle -2.551576797605999e-15 -2.739334979319589e-15
rhumerus -36.05779660833335 -30.69394014004174 -70.10429616217182
rradius 20.1944072005698
rwrist 8.559586495910079
rhand -17.468113869553335 nan
rfingers nan
rthumb 8.729052970949631 -7.341367116686739
22
root 0.2625495294154192 17.869580529818826 -1.1991883990129768 -2.3133159178814564 -4.891277802279779 -5.543163987599551
lfemur -8.064322499552025 0.567966650237568 -10.874103121351617
ltibia 61.67918418085145
lfoot 0.8963774364863655 -2.6092384690606747
ltoes -13.032600047564518
rfemur -7.7636014972904 4.37644320443278 31.245968093681682
rtibia 17.312208369697302
rfoot -5.165038422469933 -11.813552037579084
rtoes 10.767979402548974
lowerback nan 0.5631606997307937 1.7733546477679818
upperback 0.24551265459392696 1.2174648926964835 2.3226041329321045
thorax -6.391138071655624 0.6494182332468333 1.2590831818490835
lowerneck -16.884058144362893 -3.2181463417821763 -1.1300991815987977
upperneck 22.13515905496278 -4.324117942001799 0.5199562914673708
head 9.853829268567212 -2.091072702322584 -0.12308479383892482
lclavicle -2.5735488666142524e-15 -2.7756463988337692e-15
lhumerus -30.98103699146469 -0.30778888601782795 84.01217414366087
lradius 22.71301844095573
lwrist 10.7600006092385
lhand -29.718020498033987 16.55436404069211
lfingers nan
lthumb -3.178909821252934 45.83664617956615
rclavicle -2.620876211528974e-15 -2.8037433031585544e-15
rhumerus -32.95443359764033 -28.181345164743785 -71.90327081991735
rradius 20.96414117423084
rwrist 6.582760447684558
rhand -17.6191305965076 nan
rfingers nan
rthumb 8.613770205219451 -6.519666149418929
23
root 0.2727641418380536 17.842209887731737 -1.066579102880537 -2.0717874735898505 -5.178911062549224 -5.480461045705463
lfemur -12.240412689427242 1.5193277916042587 -9.74876204440186
ltibia 64.36300979169422
lfoot -0.3496671357812229 -3.0937796081829156
ltoes -6.013458028094405
rfemur -7.6105492373532595 4.937909231336722 32.06684351135361
rtibia 17.692112309636133
rfoot -1.3415469084100042 -9.618056940280612
rtoes 11.374320481695705
lowerback nan 0.8123586418448584 2.0194975026112987
upperback 0.26852611760458744 1.467527270193611 2.170093231038209
thorax -6.439843603771529 0.7286689799157128 0.9172558041950787
lowerneck -16.939133591488257 -3.394509545067471 -1.0030604107772136
upperneck 21.268525924000787 -4.562376784452701 0.9935487980871791
head 9.470456742357095 -2.170916313868042 0.03152988101712137
lclavicle -2.6005292134225675e-15 -2.792934737018792e-15
lhumerus -31.80718525566929 -0.20025306024093625 83.87363293617314
lradius 21.121626536122612
lwrist 10.737360190419338
lhand -29.44651828329062 15.660428538616628
lfingers nan
lthumb -2.870025972081461 45.135051589611535
rclavicle -2.5382451468785632e-15 -2.7580267198910234e-15
rhumerus -30.161260147792067 -25.17346213650984 -73.1383643535151
rradius 21.949489965872473
rwrist 5.501490163039785
rhand -17.756162790003096 nan
rfingers nan
rthumb 8.478702874005561 -6.008121599846934
24
root 0.26108543681035606 17.825335813493012 -1.7217279792423348 -2.0185505287989436 -5.106948461388653 -5.706129528858904
lfemur -16.81940146250625 1.9748347372669315 -9.563920460337448
ltibia 65.04725390026063
lfoot -1.7719745010347943 -2.5649524506585344
ltoes 1.2193691396919002
rfemur -7.535494543995364 4.868136751826137 32.52975305973281
rtibia 18.858485428292468
rfoot 1.8856037468267584 -8.104687593315512
rtoes 11.460639311189233
lowerback nan 1.1696793749679104 2.5687854839502955
upperback 0.13689861658094132 1.9810419220007638 1.9413203649748216
thorax -6.398159929462727 0.9411880510502056 -0.04687265523941475
lowerneck -16.48099039870119 -3.562257090931681 -1.077501447262338
upperneck 21.163651866322528 -4.859868341086936 1.3249575871780634
head 9.353290021322167 -2.267179847896186 0.10838440620021375
lclavicle -2.600723367817266e-15 -2.7940862470946303e-15
lhumerus -33.28905241586768 2.3608037510698683 83.72143851659946
lradius 21.108581484437856
lwrist 10.651924998769314
lhand -29.431909368136385 15.362344062761714
lfingers nan
lthumb -2.8127067241447423 44.97828410041262
rclavicle -2.5613916676144693e-15 -2.7747942459549973e-15
rhumerus -27.310061188621912 -21.807517413022904 -74.02213018466009
rradius 23.86282292098352
rwrist 4.11606431728247
rhand -18.013825015542434 nan
rfingers nan
rthumb 8.438443432333626 -5.541264748776217
25
root 0.274062459265033 17.82790753301447 -1.3601078078380642 -1.8647815546341222 -4.8690514941777225 -6.103676555730651
lfemur -20.76538229665476 2.0017441629782446 -9.980234739500604
ltibia 63.37615282733821
lfoot -2.8472475298795032 -0.9971471559464862
ltoes -3.3032475893973414
rfemur -7.161990480337609 4.6731004321966925 32.843870681987205
rtibia 20.35860487789812
rfoot 2.6603473865335303 -8.986829463438415
rtoes 11.972203998752633
lowerback nan 1.11989178825168 2.9698988889425104
upperback 0.19190867147828627 2.072031984840845 2.1275668196054003
thorax -6.338696632890915 0.9838690591641575 -0.4866267650447047
lowerneck -16.42879186721971 -3.651766872188542 -1.18670019410302
upperneck 21.056583610655295 -5.004555234948185 1.5216489400785733
head 9.300850330910357 -2.303287047340584 0.16305707038289863
lclavicle -2.5673103554687682e-15 -2.7762991460421637e-15
lhumerus -34.66257119973829 4.7182291141331705 83.26119675564303
lradius 21.587564946750703
lwrist 11.064463875395086
lhand -29.402145235966856 15.995489296954716
lfingers nan
lthumb -2.7470531448633353 45.45762430436015
rclavicle -2.5107741007617442e-15 -2.751688350814015e-15
rhumerus -25.548835278053215 -19.59031825674822 -73.93848756790803
rradius 26.1310625284318
rwrist 2.8828287464082845
rhand -18.116444768339303 nan
rfingers nan
rthumb 8.377858106234012 -5.08107790458124
26
root 0.3062991719742112 17.845400429685707 -0.6660638951046778 -1.7486274193705602 -4.658963642522895 -6.306751157957487
lfemur -23.301469373674813 1.7541873766774527 -10.7429454688001
ltibia 59.01624359296555
lfoot -3.5818385035337497 0.07211945696737176
ltoes -8.1902633013722
rfemur -6.968079804634746 4.648706333537111 32.95245739009281
rtibia 23.651121771186297
rfoot 2.6396720852938476 -9.735803756120049
rtoes 11.13207907395082
lowerback nan 1.3708356557821828 3.5184795600276075
upperback 0.06263362773404728 2.4598903717277008 1.9254379484017397
thorax -6.260974979729651 1.1648132248944496 -0.7908947291177253
lowerneck -16.257045654721193 -3.7456167669608456 -1.3630894212103184
upperneck 21.268165415598222 -5.182422342207335 1.6055684574275975
head 9.544159138970386 -2.3486978566949257 0.12473969288378559
lclavicle -2.5748576363699037e-15 -2.7829242898336666e-15
lhumerus -36.082564631411756 7.349340970918073 82.8182131645082
lradius 21.839088711058825
lwrist 11.447711003646226
lhand -29.425752122950016 15.827789746536325
lfingers nan
lthumb -2.7494742120242157 45.17660603515394
rclavicle -2.519305919913865e-15 -2.760771394843238e-15
rhumerus -24.698928140561325 -17.92100145058477 -73.4950616014795
rradius 28.183182403399318
rwrist 2.61066255081038
rhand -18.34106281207558 nan
rfingers nan
rthumb 8.308104878964889 -4.283427987894992
